<?xml version="1.0" encoding="utf-8"?>
<!-- Generator: Adobe Illustrator 24.1.1, SVG Export Plug-In . SVG Version: 6.00 Build 0)  -->
<svg version="1.1" xmlns="http://www.w3.org/2000/svg" xmlns:xlink="http://www.w3.org/1999/xlink" x="0px" y="0px"
	 viewBox="0 0 1920 1080" style="enable-background:new 0 0 1920 1080;" xml:space="preserve">
<style type="text/css">
	.st0{fill:#005BB4;stroke:#000000;stroke-miterlimit:10;}
	.st1{fill:none;stroke:#000000;stroke-miterlimit:10;}
	.st2{fill:#55FF7B;stroke:#000000;stroke-miterlimit:10;}
	.st3{fill:#FFD76A;stroke:#000000;stroke-miterlimit:10;}
</style>
<g id="Layer_2">
	<polygon class="st0" points="816,348 816,760 821,765 1119,765 1125,760 1125,355 1118,348 	"/>
	<g>
		<rect x="945" y="662" class="st1" width="145" height="10"/>
		<rect x="945" y="686.5" class="st1" width="145" height="10"/>
		<rect x="945" y="641.5" class="st1" width="145" height="10"/>
	</g>
</g>
<g id="Layer_3">
	<path class="st2" d="M794,348c0,0-11-43,31-39l47-0.26V348h-56v412l5,5h298l6-5V355l-7-7l-45-2l-1-37.26h53c0,0,20-1.74,20,21.26
		s0,445,0,445s5,12-20,14s-309,0-309,0s-25.6,2-23.3-33S794,348,794,348z"/>
</g>
<g id="Layer_4">
	<path class="st3" d="M872,300v48l201-2l-1-37.26l1-8.74h-60c0,0,12-39-25-50c0,0-30-8-51,15c0,0-12,30.65-7,33.33L872,300z"/>
</g>
<g id="Layer_5">
	<rect x="836" y="417" class="st1" width="69" height="71"/>
	<rect x="836" y="528" class="st1" width="69" height="70"/>
	<polygon class="st1" points="836,637 836,705 905,705 905,633 	"/>
	<g>
		<rect x="945" y="442.5" class="st1" width="145" height="10"/>
		<rect x="945" y="467" class="st1" width="145" height="10"/>
		<rect x="945" y="422" class="st1" width="145" height="10"/>
	</g>
	<g>
		<rect x="945" y="554" class="st1" width="145" height="10"/>
		<rect x="945" y="578.5" class="st1" width="145" height="10"/>
		<rect x="945" y="533.5" class="st1" width="145" height="10"/>
	</g>
</g>
<g id="Layer_6">
</g>
</svg>
