<?xml version="1.0" encoding="utf-8"?>
<!-- Generator: Adobe Illustrator 24.1.1, SVG Export Plug-In . SVG Version: 6.00 Build 0)  -->
<svg version="1.1" xmlns="http://www.w3.org/2000/svg" xmlns:xlink="http://www.w3.org/1999/xlink" x="0px" y="0px"
	 viewBox="0 0 1920 1080" style="enable-background:new 0 0 1920 1080;" xml:space="preserve">
<style type="text/css">
	.st0{fill:#4E15A0;}
	.st1{fill:#FF3E3E;}
	.st2{fill:#34E2D1;}
	.st3{fill:#D736E0;}
	.st4{fill:#EA2DD4;}
	.st5{fill:#00185F;}
</style>
<g id="Layer_2">
</g>
<g id="Layer_3">
</g>
<g id="Layer_4">
</g>
<g id="Layer_5">
</g>
<g id="Layer_6">
</g>
<g id="Layer_7">
</g>
<g id="Layer_8">
</g>
<g id="Layer_9">
</g>
<g id="Layer_10">
</g>
<g id="Layer_11">
	<g>
		<path class="st0" d="M941.69,973.99c0,0-127.8-26.44-111.26-150.25s196.75-91.58,227.68-24.17S1080.36,969.18,941.69,973.99z"/>
		<path class="st1" d="M954.97,857.65c4.57-7.54,12.88-27.08-23.58-30.77c0,0-21.22,4.17-8.79,28.16
			C935.02,879.03,950.4,865.2,954.97,857.65z"/>
		<path class="st2" d="M837.88,655.23c0,0-15.75-87.69,66.24-166.03s116.59-192.65,2.52-220.58c0,0-119.56-20.98-79.02,114.88
			l-211.76,15.67c0,0-54.16-205.56,180.44-276.66c0,0,163.16-65.5,322.36,118.97c0,0,101.26,132.68,11.03,216.15
			c0,0-103.79,94.63-116.18,194.7L837.88,655.23z"/>
		<polyline class="st2" points="706.84,159.22 703.45,165.38 710.1,161.21 710.52,157.48 		"/>
		<polygon class="st3" points="705.9,159.89 704.43,164.57 712.45,160.17 711.7,156.09 		"/>
		<polygon class="st3" points="786.31,117.31 785.72,124.34 811.06,118.02 820.42,116.1 824.89,108.43 		"/>
		<path class="st4" d="M843.75,657.07l-17.49-5.46c0,0-21.89-85.42,72.44-170.44l46.51-62.12c0,0,43.65-114.43-50.23-132.11
			c0,0-87.99-48.94-62.7,95.87l-21.99,12.54l-201.35,11.82l7.43-9.32l200.86-13.98c0,0-27.37-139.11,102.65-114.68
			c0,0,68,18.93,65.77,63.18l-1.04,39.05c0,0-20.68,54.51-31.85,69.61c-11.17,15.1-90.02,89.29-91.14,115.03
			C861.61,556.03,834.74,588.28,843.75,657.07z"/>
		<path class="st5" d="M866.21,933.57c0,0-89.5-75.39-15.59-163.28c0,0,82.08-75.08,170.05-6.09c0,0-115.01-45.25-156.39,25.09
			C864.27,789.29,811.12,852.09,866.21,933.57z"/>
		<path class="st4" d="M608.54,408.44c0,0-22.6-65.77,8.01-138.98s108.74-167.53,256.76-163.31c0,0,277.44-2.86,304.67,281.87
			c0,0-9.37,65.41-64.45,121.35s-55.08,55.94-55.08,55.94s-31.61,83.49-30.14,85.87s-14.8,1.15-14.8,1.15s12.03-81.75,81.31-157.88
			c69.28-76.13,62.31-71.57,62.31-71.57s58.38-208.56-217.63-302.16c0,0-137.48-31.76-216.1,32.8c0,0-137.3,61.18-107.53,245.65
			L608.54,408.44z"/>
		<path class="st4" d="M730.71,147.91c0,0,43.3-29.39,75.46-34.83L730.71,147.91z"/>
		<polygon class="st4" points="804.02,119.94 786.39,122.21 774.13,126.18 772.81,130.42 		"/>
		<polygon class="st4" points="804.02,119.94 800.46,118.83 786.39,122.21 		"/>
		<path class="st4" d="M727.04,145.32l-2.2,7.03l9.36-4.79l7.68-3.89c0,0,27.81-13.89,30.93-13.24l2.76-5.88
			C775.57,124.54,726.93,142.72,727.04,145.32z"/>
		<path class="st4" d="M658.58,207.51c0,0,28.28-31.72,31.53-31.12c0,0,24.07-19.36,26.46-18.78l-30.82,17.8l-28.26,29.67
			L658.58,207.51z"/>
		<polygon class="st3" points="843.75,657.07 1027.67,656.76 1028.3,651.19 843.16,652.11 		"/>
	</g>
</g>
</svg>
